<mxfile host="app.diagrams.net" agent="Mozilla/5.0 (Windows NT 10.0; Win64; x64) AppleWebKit/537.36 (KHTML, like Gecko) Chrome/132.0.0.0 Safari/537.36" version="26.0.12">
  <diagram name="Page-1" id="2YBvvXClWsGukQMizWep">
    <mxGraphModel dx="1664" dy="885" grid="1" gridSize="10" guides="1" tooltips="1" connect="1" arrows="1" fold="1" page="1" pageScale="1" pageWidth="850" pageHeight="1100" math="0" shadow="0">
      <root>
        <mxCell id="0" />
        <mxCell id="1" parent="0" />
        <mxCell id="FGgKV-xO7fP-TXcJbOwI-70" value="Alternative" style="shape=umlFrame;whiteSpace=wrap;html=1;pointerEvents=0;width=80;height=20;" vertex="1" parent="1">
          <mxGeometry x="111.14" y="700" width="760" height="200" as="geometry" />
        </mxCell>
        <mxCell id="FGgKV-xO7fP-TXcJbOwI-90" value="Alternative" style="shape=umlFrame;whiteSpace=wrap;html=1;pointerEvents=0;width=80;height=20;" vertex="1" parent="1">
          <mxGeometry x="110" y="1000" width="760" height="130" as="geometry" />
        </mxCell>
        <mxCell id="F4sd7CnOWZ5qCEoItEzf-10" value="UI" style="rounded=0;whiteSpace=wrap;html=1;" parent="1" vertex="1">
          <mxGeometry x="320" y="40" width="80" height="40" as="geometry" />
        </mxCell>
        <mxCell id="F4sd7CnOWZ5qCEoItEzf-11" value="Server" style="rounded=0;whiteSpace=wrap;html=1;" parent="1" vertex="1">
          <mxGeometry x="480" y="40" width="80" height="40" as="geometry" />
        </mxCell>
        <mxCell id="F4sd7CnOWZ5qCEoItEzf-14" value="" style="endArrow=none;dashed=1;html=1;rounded=0;exitX=0.5;exitY=1;exitDx=0;exitDy=0;dashPattern=8 8;" parent="1" source="F4sd7CnOWZ5qCEoItEzf-101" edge="1">
          <mxGeometry width="50" height="50" relative="1" as="geometry">
            <mxPoint x="359.71000000000004" y="80" as="sourcePoint" />
            <mxPoint x="360" y="1150" as="targetPoint" />
          </mxGeometry>
        </mxCell>
        <mxCell id="F4sd7CnOWZ5qCEoItEzf-15" value="" style="endArrow=none;dashed=1;html=1;rounded=0;exitX=0.5;exitY=1;exitDx=0;exitDy=0;dashPattern=8 8;" parent="1" source="F4sd7CnOWZ5qCEoItEzf-103" edge="1">
          <mxGeometry width="50" height="50" relative="1" as="geometry">
            <mxPoint x="519.71" y="80" as="sourcePoint" />
            <mxPoint x="520" y="1150" as="targetPoint" />
          </mxGeometry>
        </mxCell>
        <mxCell id="F4sd7CnOWZ5qCEoItEzf-16" value="" style="endArrow=none;dashed=1;html=1;rounded=0;exitX=0.5;exitY=1;exitDx=0;exitDy=0;dashPattern=8 8;" parent="1" edge="1">
          <mxGeometry width="50" height="50" relative="1" as="geometry">
            <mxPoint x="199.66000000000003" y="80" as="sourcePoint" />
            <mxPoint x="200" y="1150" as="targetPoint" />
          </mxGeometry>
        </mxCell>
        <mxCell id="F4sd7CnOWZ5qCEoItEzf-7" value="&lt;span style=&quot;background-color: light-dark(#ffffff, var(--ge-dark-color, #121212));&quot;&gt;Logged-in User&lt;/span&gt;" style="shape=umlActor;verticalLabelPosition=bottom;verticalAlign=top;html=1;outlineConnect=0;" parent="1" vertex="1">
          <mxGeometry x="185" y="20" width="30" height="60" as="geometry" />
        </mxCell>
        <mxCell id="F4sd7CnOWZ5qCEoItEzf-27" value="Click Home Page" style="endArrow=classic;html=1;rounded=0;entryX=0;entryY=0.013;entryDx=0;entryDy=0;entryPerimeter=0;" parent="1" target="F4sd7CnOWZ5qCEoItEzf-101" edge="1">
          <mxGeometry width="50" height="50" relative="1" as="geometry">
            <mxPoint x="201.04" y="120" as="sourcePoint" />
            <mxPoint x="350.00000000000006" y="123.68" as="targetPoint" />
          </mxGeometry>
        </mxCell>
        <mxCell id="F4sd7CnOWZ5qCEoItEzf-34" value="Database" style="rounded=0;whiteSpace=wrap;html=1;" parent="1" vertex="1">
          <mxGeometry x="640" y="40" width="80" height="40" as="geometry" />
        </mxCell>
        <mxCell id="F4sd7CnOWZ5qCEoItEzf-36" value="Get All Elections" style="endArrow=classic;html=1;rounded=0;" parent="1" edge="1">
          <mxGeometry width="50" height="50" relative="1" as="geometry">
            <mxPoint x="530" y="160" as="sourcePoint" />
            <mxPoint x="670" y="160" as="targetPoint" />
          </mxGeometry>
        </mxCell>
        <mxCell id="F4sd7CnOWZ5qCEoItEzf-38" value="Elections Found" style="endArrow=none;html=1;rounded=0;startArrow=block;startFill=1;dashed=1;dashPattern=8 8;" parent="1" edge="1">
          <mxGeometry width="50" height="50" relative="1" as="geometry">
            <mxPoint x="530" y="180" as="sourcePoint" />
            <mxPoint x="670" y="180" as="targetPoint" />
          </mxGeometry>
        </mxCell>
        <mxCell id="F4sd7CnOWZ5qCEoItEzf-47" value="Return All Elections" style="endArrow=none;html=1;rounded=0;startArrow=block;startFill=1;dashed=1;dashPattern=8 8;" parent="1" edge="1">
          <mxGeometry width="50" height="50" relative="1" as="geometry">
            <mxPoint x="370" y="200" as="sourcePoint" />
            <mxPoint x="510" y="200" as="targetPoint" />
          </mxGeometry>
        </mxCell>
        <mxCell id="F4sd7CnOWZ5qCEoItEzf-49" value="&lt;font style=&quot;font-size: 9px;&quot;&gt;Open Election Candidates Page&lt;/font&gt;" style="endArrow=none;html=1;rounded=0;startArrow=block;startFill=1;dashed=1;dashPattern=8 8;" parent="1" edge="1">
          <mxGeometry width="50" height="50" relative="1" as="geometry">
            <mxPoint x="200" y="470" as="sourcePoint" />
            <mxPoint x="350" y="470" as="targetPoint" />
          </mxGeometry>
        </mxCell>
        <mxCell id="F4sd7CnOWZ5qCEoItEzf-102" value="" style="endArrow=none;dashed=1;html=1;rounded=0;exitX=0.5;exitY=1;exitDx=0;exitDy=0;dashPattern=8 8;" parent="1" target="F4sd7CnOWZ5qCEoItEzf-101" edge="1">
          <mxGeometry width="50" height="50" relative="1" as="geometry">
            <mxPoint x="359.71000000000004" y="80" as="sourcePoint" />
            <mxPoint x="359.71000000000004" y="880" as="targetPoint" />
          </mxGeometry>
        </mxCell>
        <mxCell id="F4sd7CnOWZ5qCEoItEzf-104" value="" style="endArrow=none;dashed=1;html=1;rounded=0;exitX=0.5;exitY=1;exitDx=0;exitDy=0;dashPattern=8 8;" parent="1" target="F4sd7CnOWZ5qCEoItEzf-103" edge="1">
          <mxGeometry width="50" height="50" relative="1" as="geometry">
            <mxPoint x="519.71" y="80" as="sourcePoint" />
            <mxPoint x="520" y="680" as="targetPoint" />
          </mxGeometry>
        </mxCell>
        <mxCell id="dBP3PC5nFZbCUI9GzV9c-1" value="SMS/OTP Service" style="rounded=0;whiteSpace=wrap;html=1;" parent="1" vertex="1">
          <mxGeometry x="800" y="40" width="80" height="40" as="geometry" />
        </mxCell>
        <mxCell id="dBP3PC5nFZbCUI9GzV9c-5" value="" style="endArrow=none;dashed=1;html=1;rounded=0;exitX=0.5;exitY=1;exitDx=0;exitDy=0;dashPattern=8 8;" parent="1" target="dBP3PC5nFZbCUI9GzV9c-4" edge="1">
          <mxGeometry width="50" height="50" relative="1" as="geometry">
            <mxPoint x="839.6600000000001" y="80" as="sourcePoint" />
            <mxPoint x="840" y="680" as="targetPoint" />
          </mxGeometry>
        </mxCell>
        <mxCell id="dBP3PC5nFZbCUI9GzV9c-9" value="" style="endArrow=none;dashed=1;html=1;rounded=0;exitX=0.5;exitY=1;exitDx=0;exitDy=0;dashPattern=8 8;" parent="1" source="FGgKV-xO7fP-TXcJbOwI-88" edge="1">
          <mxGeometry width="50" height="50" relative="1" as="geometry">
            <mxPoint x="840" y="380" as="sourcePoint" />
            <mxPoint x="840" y="1150" as="targetPoint" />
          </mxGeometry>
        </mxCell>
        <mxCell id="FGgKV-xO7fP-TXcJbOwI-4" value="" style="endArrow=none;dashed=1;html=1;rounded=0;exitX=0.5;exitY=1;exitDx=0;exitDy=0;dashPattern=8 8;" edge="1" parent="1" source="F4sd7CnOWZ5qCEoItEzf-105">
          <mxGeometry width="50" height="50" relative="1" as="geometry">
            <mxPoint x="680" y="380" as="sourcePoint" />
            <mxPoint x="680" y="1150" as="targetPoint" />
          </mxGeometry>
        </mxCell>
        <mxCell id="FGgKV-xO7fP-TXcJbOwI-10" value="Open Home Page" style="endArrow=none;html=1;rounded=0;startArrow=block;startFill=1;dashed=1;dashPattern=8 8;" edge="1" parent="1">
          <mxGeometry width="50" height="50" relative="1" as="geometry">
            <mxPoint x="200" y="220" as="sourcePoint" />
            <mxPoint x="350" y="220" as="targetPoint" />
          </mxGeometry>
        </mxCell>
        <mxCell id="FGgKV-xO7fP-TXcJbOwI-12" value="Click on Election" style="endArrow=classic;html=1;rounded=0;entryX=-0.052;entryY=0.018;entryDx=0;entryDy=0;entryPerimeter=0;" edge="1" parent="1">
          <mxGeometry x="-0.0029" width="50" height="50" relative="1" as="geometry">
            <mxPoint x="201" y="240" as="sourcePoint" />
            <mxPoint x="350" y="240" as="targetPoint" />
            <mxPoint as="offset" />
          </mxGeometry>
        </mxCell>
        <mxCell id="FGgKV-xO7fP-TXcJbOwI-16" value="Request All Elections" style="endArrow=none;html=1;rounded=0;startArrow=block;startFill=1;" edge="1" parent="1">
          <mxGeometry width="50" height="50" relative="1" as="geometry">
            <mxPoint x="510" y="140" as="sourcePoint" />
            <mxPoint x="370" y="140" as="targetPoint" />
          </mxGeometry>
        </mxCell>
        <mxCell id="FGgKV-xO7fP-TXcJbOwI-17" value="Request Election&#39;s Stats" style="endArrow=none;html=1;rounded=0;startArrow=block;startFill=1;" edge="1" parent="1">
          <mxGeometry width="50" height="50" relative="1" as="geometry">
            <mxPoint x="510" y="260" as="sourcePoint" />
            <mxPoint x="370" y="260" as="targetPoint" />
          </mxGeometry>
        </mxCell>
        <mxCell id="FGgKV-xO7fP-TXcJbOwI-18" value="Get Election&#39;s Stats" style="endArrow=none;html=1;rounded=0;startArrow=block;startFill=1;" edge="1" parent="1">
          <mxGeometry width="50" height="50" relative="1" as="geometry">
            <mxPoint x="670" y="279.83" as="sourcePoint" />
            <mxPoint x="530" y="279.83" as="targetPoint" />
          </mxGeometry>
        </mxCell>
        <mxCell id="FGgKV-xO7fP-TXcJbOwI-19" value="Election&#39;s Stats" style="endArrow=none;html=1;rounded=0;startArrow=block;startFill=1;dashed=1;dashPattern=8 8;" edge="1" parent="1">
          <mxGeometry width="50" height="50" relative="1" as="geometry">
            <mxPoint x="530" y="300" as="sourcePoint" />
            <mxPoint x="670" y="300" as="targetPoint" />
          </mxGeometry>
        </mxCell>
        <mxCell id="FGgKV-xO7fP-TXcJbOwI-20" value="Return Election&#39;s Stats" style="endArrow=none;html=1;rounded=0;startArrow=block;startFill=1;dashed=1;dashPattern=8 8;" edge="1" parent="1">
          <mxGeometry width="50" height="50" relative="1" as="geometry">
            <mxPoint x="370" y="320" as="sourcePoint" />
            <mxPoint x="510" y="320" as="targetPoint" />
          </mxGeometry>
        </mxCell>
        <mxCell id="FGgKV-xO7fP-TXcJbOwI-22" value="Open Election&#39;s Chart" style="endArrow=none;html=1;rounded=0;startArrow=block;startFill=1;dashed=1;dashPattern=8 8;" edge="1" parent="1">
          <mxGeometry width="50" height="50" relative="1" as="geometry">
            <mxPoint x="200" y="340" as="sourcePoint" />
            <mxPoint x="350" y="340" as="targetPoint" />
          </mxGeometry>
        </mxCell>
        <mxCell id="FGgKV-xO7fP-TXcJbOwI-23" value="Click on Cast Vote" style="endArrow=classic;html=1;rounded=0;entryX=-0.052;entryY=0.018;entryDx=0;entryDy=0;entryPerimeter=0;" edge="1" parent="1">
          <mxGeometry x="-0.0029" width="50" height="50" relative="1" as="geometry">
            <mxPoint x="201" y="370" as="sourcePoint" />
            <mxPoint x="350" y="370" as="targetPoint" />
            <mxPoint as="offset" />
          </mxGeometry>
        </mxCell>
        <mxCell id="FGgKV-xO7fP-TXcJbOwI-25" value="Request Candidates&#39; Info" style="endArrow=none;html=1;rounded=0;startArrow=block;startFill=1;" edge="1" parent="1">
          <mxGeometry width="50" height="50" relative="1" as="geometry">
            <mxPoint x="510" y="390" as="sourcePoint" />
            <mxPoint x="370" y="390" as="targetPoint" />
          </mxGeometry>
        </mxCell>
        <mxCell id="FGgKV-xO7fP-TXcJbOwI-26" value="Get Candidates&#39; Info" style="endArrow=none;html=1;rounded=0;startArrow=block;startFill=1;" edge="1" parent="1">
          <mxGeometry width="50" height="50" relative="1" as="geometry">
            <mxPoint x="670" y="410" as="sourcePoint" />
            <mxPoint x="530" y="410" as="targetPoint" />
            <mxPoint as="offset" />
          </mxGeometry>
        </mxCell>
        <mxCell id="FGgKV-xO7fP-TXcJbOwI-27" value="Candidates&#39; Info" style="endArrow=none;html=1;rounded=0;startArrow=block;startFill=1;dashed=1;dashPattern=8 8;" edge="1" parent="1">
          <mxGeometry width="50" height="50" relative="1" as="geometry">
            <mxPoint x="530" y="430" as="sourcePoint" />
            <mxPoint x="670" y="430" as="targetPoint" />
          </mxGeometry>
        </mxCell>
        <mxCell id="FGgKV-xO7fP-TXcJbOwI-28" value="Return Candidates&#39; Info" style="endArrow=none;html=1;rounded=0;startArrow=block;startFill=1;dashed=1;dashPattern=8 8;" edge="1" parent="1">
          <mxGeometry width="50" height="50" relative="1" as="geometry">
            <mxPoint x="370" y="450" as="sourcePoint" />
            <mxPoint x="510" y="450" as="targetPoint" />
          </mxGeometry>
        </mxCell>
        <mxCell id="FGgKV-xO7fP-TXcJbOwI-30" value="Click on Cast Vote" style="endArrow=classic;html=1;rounded=0;entryX=-0.052;entryY=0.018;entryDx=0;entryDy=0;entryPerimeter=0;" edge="1" parent="1">
          <mxGeometry x="-0.0029" width="50" height="50" relative="1" as="geometry">
            <mxPoint x="201" y="490" as="sourcePoint" />
            <mxPoint x="350" y="490" as="targetPoint" />
            <mxPoint as="offset" />
          </mxGeometry>
        </mxCell>
        <mxCell id="FGgKV-xO7fP-TXcJbOwI-32" value="Request Locations" style="endArrow=none;html=1;rounded=0;startArrow=block;startFill=1;" edge="1" parent="1">
          <mxGeometry width="50" height="50" relative="1" as="geometry">
            <mxPoint x="510" y="510" as="sourcePoint" />
            <mxPoint x="370" y="510" as="targetPoint" />
          </mxGeometry>
        </mxCell>
        <mxCell id="FGgKV-xO7fP-TXcJbOwI-34" value="Get Locations" style="endArrow=none;html=1;rounded=0;startArrow=block;startFill=1;" edge="1" parent="1">
          <mxGeometry width="50" height="50" relative="1" as="geometry">
            <mxPoint x="670" y="530" as="sourcePoint" />
            <mxPoint x="530" y="530" as="targetPoint" />
          </mxGeometry>
        </mxCell>
        <mxCell id="FGgKV-xO7fP-TXcJbOwI-35" value="Locations" style="endArrow=none;html=1;rounded=0;startArrow=block;startFill=1;dashed=1;dashPattern=8 8;" edge="1" parent="1">
          <mxGeometry width="50" height="50" relative="1" as="geometry">
            <mxPoint x="530" y="550" as="sourcePoint" />
            <mxPoint x="670" y="550" as="targetPoint" />
          </mxGeometry>
        </mxCell>
        <mxCell id="FGgKV-xO7fP-TXcJbOwI-36" value="&lt;font style=&quot;font-size: 9px;&quot;&gt;Return Locations+Candidates&lt;/font&gt;" style="endArrow=none;html=1;rounded=0;startArrow=block;startFill=1;dashed=1;dashPattern=8 8;" edge="1" parent="1">
          <mxGeometry width="50" height="50" relative="1" as="geometry">
            <mxPoint x="370" y="610" as="sourcePoint" />
            <mxPoint x="510" y="610" as="targetPoint" />
          </mxGeometry>
        </mxCell>
        <mxCell id="FGgKV-xO7fP-TXcJbOwI-37" value="&lt;font style=&quot;font-size: 9px;&quot;&gt;Open Voting Page With Election&lt;/font&gt;" style="endArrow=none;html=1;rounded=0;startArrow=block;startFill=1;dashed=1;dashPattern=8 8;" edge="1" parent="1">
          <mxGeometry width="50" height="50" relative="1" as="geometry">
            <mxPoint x="200" y="630" as="sourcePoint" />
            <mxPoint x="350" y="630" as="targetPoint" />
          </mxGeometry>
        </mxCell>
        <mxCell id="FGgKV-xO7fP-TXcJbOwI-38" value="Get Candidates" style="endArrow=none;html=1;rounded=0;startArrow=block;startFill=1;" edge="1" parent="1">
          <mxGeometry width="50" height="50" relative="1" as="geometry">
            <mxPoint x="670" y="570" as="sourcePoint" />
            <mxPoint x="530" y="570" as="targetPoint" />
          </mxGeometry>
        </mxCell>
        <mxCell id="FGgKV-xO7fP-TXcJbOwI-39" value="Candidates" style="endArrow=none;html=1;rounded=0;startArrow=block;startFill=1;dashed=1;dashPattern=8 8;" edge="1" parent="1">
          <mxGeometry width="50" height="50" relative="1" as="geometry">
            <mxPoint x="530" y="590" as="sourcePoint" />
            <mxPoint x="670" y="590" as="targetPoint" />
          </mxGeometry>
        </mxCell>
        <mxCell id="FGgKV-xO7fP-TXcJbOwI-42" value="Click on Cast Vote" style="endArrow=classic;html=1;rounded=0;entryX=-0.052;entryY=0.018;entryDx=0;entryDy=0;entryPerimeter=0;" edge="1" parent="1">
          <mxGeometry x="-0.0029" width="50" height="50" relative="1" as="geometry">
            <mxPoint x="201" y="660" as="sourcePoint" />
            <mxPoint x="350" y="660" as="targetPoint" />
            <mxPoint as="offset" />
          </mxGeometry>
        </mxCell>
        <mxCell id="FGgKV-xO7fP-TXcJbOwI-46" value="Check User&#39;s Permission" style="endArrow=none;html=1;rounded=0;startArrow=block;startFill=1;" edge="1" parent="1">
          <mxGeometry width="50" height="50" relative="1" as="geometry">
            <mxPoint x="510" y="680" as="sourcePoint" />
            <mxPoint x="370" y="680" as="targetPoint" />
          </mxGeometry>
        </mxCell>
        <mxCell id="FGgKV-xO7fP-TXcJbOwI-49" value="Get User&#39;s Vote Status" style="endArrow=none;html=1;rounded=0;startArrow=block;startFill=1;" edge="1" parent="1">
          <mxGeometry width="50" height="50" relative="1" as="geometry">
            <mxPoint x="670" y="690" as="sourcePoint" />
            <mxPoint x="530" y="690" as="targetPoint" />
          </mxGeometry>
        </mxCell>
        <mxCell id="FGgKV-xO7fP-TXcJbOwI-52" value="User Can Vote" style="endArrow=none;html=1;rounded=0;startArrow=block;startFill=1;dashed=1;dashPattern=8 8;" edge="1" parent="1">
          <mxGeometry width="50" height="50" relative="1" as="geometry">
            <mxPoint x="530" y="710" as="sourcePoint" />
            <mxPoint x="670" y="710" as="targetPoint" />
          </mxGeometry>
        </mxCell>
        <mxCell id="F4sd7CnOWZ5qCEoItEzf-103" value="" style="rounded=0;whiteSpace=wrap;html=1;" parent="1" vertex="1">
          <mxGeometry x="510" y="130" width="20" height="1010" as="geometry" />
        </mxCell>
        <mxCell id="F4sd7CnOWZ5qCEoItEzf-105" value="" style="rounded=0;whiteSpace=wrap;html=1;" parent="1" vertex="1">
          <mxGeometry x="670" y="150" width="20" height="990" as="geometry" />
        </mxCell>
        <mxCell id="FGgKV-xO7fP-TXcJbOwI-71" value="[ if User can Vote ]" style="text;html=1;align=center;verticalAlign=middle;whiteSpace=wrap;rounded=0;" vertex="1" parent="1">
          <mxGeometry x="111.14" y="720" width="78.86" height="120" as="geometry" />
        </mxCell>
        <mxCell id="FGgKV-xO7fP-TXcJbOwI-83" value="Get User&#39;s Phone" style="endArrow=none;html=1;rounded=0;startArrow=block;startFill=1;" edge="1" parent="1">
          <mxGeometry width="50" height="50" relative="1" as="geometry">
            <mxPoint x="670" y="730" as="sourcePoint" />
            <mxPoint x="530" y="730" as="targetPoint" />
          </mxGeometry>
        </mxCell>
        <mxCell id="FGgKV-xO7fP-TXcJbOwI-89" value="" style="endArrow=none;dashed=1;html=1;rounded=0;exitX=0.5;exitY=1;exitDx=0;exitDy=0;dashPattern=8 8;" edge="1" parent="1" source="dBP3PC5nFZbCUI9GzV9c-4" target="FGgKV-xO7fP-TXcJbOwI-88">
          <mxGeometry width="50" height="50" relative="1" as="geometry">
            <mxPoint x="840" y="800" as="sourcePoint" />
            <mxPoint x="840" y="1080" as="targetPoint" />
          </mxGeometry>
        </mxCell>
        <mxCell id="F4sd7CnOWZ5qCEoItEzf-101" value="" style="rounded=0;whiteSpace=wrap;html=1;" parent="1" vertex="1">
          <mxGeometry x="350" y="110" width="20" height="1030" as="geometry" />
        </mxCell>
        <mxCell id="FGgKV-xO7fP-TXcJbOwI-88" value="" style="rounded=0;whiteSpace=wrap;html=1;" vertex="1" parent="1">
          <mxGeometry x="830" y="980" width="20" height="160" as="geometry" />
        </mxCell>
        <mxCell id="F4sd7CnOWZ5qCEoItEzf-106" value="" style="endArrow=none;dashed=1;html=1;rounded=0;exitX=0.5;exitY=1;exitDx=0;exitDy=0;dashPattern=8 8;" parent="1" target="F4sd7CnOWZ5qCEoItEzf-105" edge="1">
          <mxGeometry width="50" height="50" relative="1" as="geometry">
            <mxPoint x="679.71" y="80" as="sourcePoint" />
            <mxPoint x="680" y="680" as="targetPoint" />
          </mxGeometry>
        </mxCell>
        <mxCell id="FGgKV-xO7fP-TXcJbOwI-74" value="User Cannot Vote" style="endArrow=none;html=1;rounded=0;startArrow=block;startFill=1;dashed=1;dashPattern=8 8;" edge="1" parent="1">
          <mxGeometry width="50" height="50" relative="1" as="geometry">
            <mxPoint x="530" y="849.83" as="sourcePoint" />
            <mxPoint x="670" y="849.83" as="targetPoint" />
          </mxGeometry>
        </mxCell>
        <mxCell id="FGgKV-xO7fP-TXcJbOwI-72" value="[ else ]" style="text;html=1;align=center;verticalAlign=middle;whiteSpace=wrap;rounded=0;" vertex="1" parent="1">
          <mxGeometry x="110.76" y="840" width="79.24" height="60" as="geometry" />
        </mxCell>
        <mxCell id="FGgKV-xO7fP-TXcJbOwI-68" value="Enter OTP" style="endArrow=classic;html=1;rounded=0;dashed=1;dashPattern=8 8;" edge="1" parent="1">
          <mxGeometry x="-0.0029" width="50" height="50" relative="1" as="geometry">
            <mxPoint x="200" y="910" as="sourcePoint" />
            <mxPoint x="349" y="910" as="targetPoint" />
            <mxPoint as="offset" />
          </mxGeometry>
        </mxCell>
        <mxCell id="FGgKV-xO7fP-TXcJbOwI-75" value="User Cannot Vote" style="endArrow=none;html=1;rounded=0;startArrow=block;startFill=1;dashed=1;dashPattern=8 8;" edge="1" parent="1">
          <mxGeometry width="50" height="50" relative="1" as="geometry">
            <mxPoint x="370" y="870" as="sourcePoint" />
            <mxPoint x="510" y="870" as="targetPoint" />
          </mxGeometry>
        </mxCell>
        <mxCell id="FGgKV-xO7fP-TXcJbOwI-76" value="&lt;font&gt;Show Error&lt;/font&gt;" style="endArrow=none;html=1;rounded=0;startArrow=block;startFill=1;" edge="1" parent="1">
          <mxGeometry width="50" height="50" relative="1" as="geometry">
            <mxPoint x="200" y="890" as="sourcePoint" />
            <mxPoint x="350" y="890" as="targetPoint" />
          </mxGeometry>
        </mxCell>
        <mxCell id="FGgKV-xO7fP-TXcJbOwI-80" value="Check OTP" style="endArrow=classic;html=1;rounded=0;" edge="1" parent="1">
          <mxGeometry x="-0.0029" width="50" height="50" relative="1" as="geometry">
            <mxPoint x="370" y="930" as="sourcePoint" />
            <mxPoint x="510" y="930" as="targetPoint" />
            <mxPoint as="offset" />
          </mxGeometry>
        </mxCell>
        <mxCell id="FGgKV-xO7fP-TXcJbOwI-81" value="Get User&#39;s Phone" style="endArrow=none;html=1;rounded=0;startArrow=block;startFill=1;" edge="1" parent="1">
          <mxGeometry width="50" height="50" relative="1" as="geometry">
            <mxPoint x="670" y="950" as="sourcePoint" />
            <mxPoint x="530" y="950" as="targetPoint" />
          </mxGeometry>
        </mxCell>
        <mxCell id="F4sd7CnOWZ5qCEoItEzf-45" value="SMS+OTP Request" style="endArrow=classic;html=1;rounded=0;" parent="1" edge="1">
          <mxGeometry width="50" height="50" relative="1" as="geometry">
            <mxPoint x="530" y="770" as="sourcePoint" />
            <mxPoint x="830" y="770" as="targetPoint" />
          </mxGeometry>
        </mxCell>
        <mxCell id="FGgKV-xO7fP-TXcJbOwI-64" value="User Can Vote" style="endArrow=none;html=1;rounded=0;startArrow=block;startFill=1;dashed=1;dashPattern=8 8;" edge="1" parent="1">
          <mxGeometry width="50" height="50" relative="1" as="geometry">
            <mxPoint x="370" y="810" as="sourcePoint" />
            <mxPoint x="510" y="810" as="targetPoint" />
          </mxGeometry>
        </mxCell>
        <mxCell id="FGgKV-xO7fP-TXcJbOwI-66" value="&lt;font&gt;Request OTP&lt;/font&gt;" style="endArrow=none;html=1;rounded=0;startArrow=block;startFill=1;" edge="1" parent="1">
          <mxGeometry width="50" height="50" relative="1" as="geometry">
            <mxPoint x="200" y="830" as="sourcePoint" />
            <mxPoint x="350" y="830" as="targetPoint" />
          </mxGeometry>
        </mxCell>
        <mxCell id="FGgKV-xO7fP-TXcJbOwI-84" value="User&#39;s Phone" style="endArrow=none;html=1;rounded=0;startArrow=block;startFill=1;dashed=1;dashPattern=8 8;" edge="1" parent="1">
          <mxGeometry width="50" height="50" relative="1" as="geometry">
            <mxPoint x="530" y="750" as="sourcePoint" />
            <mxPoint x="670" y="750" as="targetPoint" />
          </mxGeometry>
        </mxCell>
        <mxCell id="dBP3PC5nFZbCUI9GzV9c-4" value="" style="rounded=0;whiteSpace=wrap;html=1;" parent="1" vertex="1">
          <mxGeometry x="830" y="760" width="20" height="40" as="geometry" />
        </mxCell>
        <mxCell id="FGgKV-xO7fP-TXcJbOwI-73" value="" style="endArrow=none;html=1;rounded=0;entryX=0.998;entryY=0.502;entryDx=0;entryDy=0;entryPerimeter=0;exitX=-0.001;exitY=0.497;exitDx=0;exitDy=0;exitPerimeter=0;dashed=1;dashPattern=8 8;" edge="1" parent="1">
          <mxGeometry width="50" height="50" relative="1" as="geometry">
            <mxPoint x="110.00000000000011" y="840.0000000000001" as="sourcePoint" />
            <mxPoint x="869.2399999999999" y="841.0000000000001" as="targetPoint" />
          </mxGeometry>
        </mxCell>
        <mxCell id="FGgKV-xO7fP-TXcJbOwI-86" value="User&#39;s Phone" style="endArrow=none;html=1;rounded=0;startArrow=block;startFill=1;dashed=1;dashPattern=8 8;" edge="1" parent="1">
          <mxGeometry width="50" height="50" relative="1" as="geometry">
            <mxPoint x="530" y="970" as="sourcePoint" />
            <mxPoint x="670" y="970" as="targetPoint" />
          </mxGeometry>
        </mxCell>
        <mxCell id="FGgKV-xO7fP-TXcJbOwI-87" value="OTP Check" style="endArrow=classic;html=1;rounded=0;" edge="1" parent="1">
          <mxGeometry width="50" height="50" relative="1" as="geometry">
            <mxPoint x="530" y="990" as="sourcePoint" />
            <mxPoint x="830" y="990" as="targetPoint" />
          </mxGeometry>
        </mxCell>
        <mxCell id="FGgKV-xO7fP-TXcJbOwI-97" value="Record User&#39;s Vote" style="endArrow=none;html=1;rounded=0;startArrow=block;startFill=1;" edge="1" parent="1">
          <mxGeometry width="50" height="50" relative="1" as="geometry">
            <mxPoint x="670" y="1030" as="sourcePoint" />
            <mxPoint x="530" y="1030" as="targetPoint" />
          </mxGeometry>
        </mxCell>
        <mxCell id="FGgKV-xO7fP-TXcJbOwI-98" value="Successful Vote" style="endArrow=classic;html=1;rounded=0;dashed=1;dashPattern=8 8;" edge="1" parent="1">
          <mxGeometry width="50" height="50" relative="1" as="geometry">
            <mxPoint x="510" y="1050" as="sourcePoint" />
            <mxPoint x="370" y="1050" as="targetPoint" />
          </mxGeometry>
        </mxCell>
        <mxCell id="FGgKV-xO7fP-TXcJbOwI-99" value="Notify User" style="endArrow=none;html=1;rounded=0;startArrow=block;startFill=1;dashed=1;dashPattern=8 8;" edge="1" parent="1">
          <mxGeometry width="50" height="50" relative="1" as="geometry">
            <mxPoint x="200" y="1070" as="sourcePoint" />
            <mxPoint x="350" y="1070" as="targetPoint" />
          </mxGeometry>
        </mxCell>
        <mxCell id="FGgKV-xO7fP-TXcJbOwI-100" value="" style="endArrow=none;html=1;rounded=0;entryX=0.998;entryY=0.502;entryDx=0;entryDy=0;entryPerimeter=0;exitX=-0.001;exitY=0.497;exitDx=0;exitDy=0;exitPerimeter=0;dashed=1;dashPattern=8 8;" edge="1" parent="1">
          <mxGeometry width="50" height="50" relative="1" as="geometry">
            <mxPoint x="110.38000000000012" y="1080" as="sourcePoint" />
            <mxPoint x="869.6199999999999" y="1081" as="targetPoint" />
          </mxGeometry>
        </mxCell>
        <mxCell id="FGgKV-xO7fP-TXcJbOwI-103" value="OTP is Wrong" style="endArrow=classic;html=1;rounded=0;dashed=1;dashPattern=8 8;" edge="1" parent="1">
          <mxGeometry width="50" height="50" relative="1" as="geometry">
            <mxPoint x="509.62" y="1100" as="sourcePoint" />
            <mxPoint x="369.62" y="1100" as="targetPoint" />
          </mxGeometry>
        </mxCell>
        <mxCell id="FGgKV-xO7fP-TXcJbOwI-104" value="Show Error" style="endArrow=none;html=1;rounded=0;startArrow=block;startFill=1;" edge="1" parent="1">
          <mxGeometry width="50" height="50" relative="1" as="geometry">
            <mxPoint x="200" y="1120" as="sourcePoint" />
            <mxPoint x="350" y="1120" as="targetPoint" />
          </mxGeometry>
        </mxCell>
        <mxCell id="FGgKV-xO7fP-TXcJbOwI-105" value="[ if OTP is Verified ]" style="text;html=1;align=center;verticalAlign=middle;whiteSpace=wrap;rounded=0;" vertex="1" parent="1">
          <mxGeometry x="110.95" y="1020" width="79.05" height="60" as="geometry" />
        </mxCell>
        <mxCell id="FGgKV-xO7fP-TXcJbOwI-106" value="[ else ]" style="text;html=1;align=center;verticalAlign=middle;whiteSpace=wrap;rounded=0;" vertex="1" parent="1">
          <mxGeometry x="110" y="1080" width="80" height="50" as="geometry" />
        </mxCell>
        <mxCell id="dBP3PC5nFZbCUI9GzV9c-3" value="Send SMS With OTP" style="endArrow=classic;html=1;rounded=0;dashed=1;dashPattern=8 8;" parent="1" edge="1">
          <mxGeometry width="50" height="50" relative="1" as="geometry">
            <mxPoint x="830" y="790" as="sourcePoint" />
            <mxPoint x="200" y="790" as="targetPoint" />
          </mxGeometry>
        </mxCell>
        <mxCell id="FGgKV-xO7fP-TXcJbOwI-102" value="OTP is not Verified" style="endArrow=classic;html=1;rounded=0;dashed=1;dashPattern=8 8;" edge="1" parent="1">
          <mxGeometry width="50" height="50" relative="1" as="geometry">
            <mxPoint x="829.62" y="1090" as="sourcePoint" />
            <mxPoint x="529.62" y="1090" as="targetPoint" />
          </mxGeometry>
        </mxCell>
        <mxCell id="FGgKV-xO7fP-TXcJbOwI-92" value="OTP Verified" style="endArrow=classic;html=1;rounded=0;dashed=1;dashPattern=8 8;" edge="1" parent="1">
          <mxGeometry width="50" height="50" relative="1" as="geometry">
            <mxPoint x="830" y="1010" as="sourcePoint" />
            <mxPoint x="530" y="1010" as="targetPoint" />
          </mxGeometry>
        </mxCell>
      </root>
    </mxGraphModel>
  </diagram>
</mxfile>
